<?xml version="1.0" encoding="utf-8" standalone="no"?>
<!DOCTYPE svg PUBLIC "-//W3C//DTD SVG 1.1//EN"
  "http://www.w3.org/Graphics/SVG/1.1/DTD/svg11.dtd">
<!-- Created with matplotlib (http://matplotlib.org/) -->
<svg height="1440pt" version="1.1" viewBox="0 0 1440 1440" width="1440pt" xmlns="http://www.w3.org/2000/svg" xmlns:xlink="http://www.w3.org/1999/xlink">
 <defs>
  <style type="text/css">
*{stroke-linecap:butt;stroke-linejoin:round;}
  </style>
 </defs>
 <g id="figure_1">
  <g id="patch_1">
   <path d="M 0 1440 
L 1440 1440 
L 1440 0 
L 0 0 
z
" style="fill:#ffffff;"/>
  </g>
  <g id="axes_1">
   <g id="patch_2">
    <path d="M 180 1260 
L 1296 1260 
L 1296 172.8 
L 180 172.8 
z
" style="fill:#ffffff;"/>
   </g>
   <g id="patch_3">
    <path clip-path="url(#p84c5eb58b6)" d="M 230.727273 1260 
L 234.629371 1260 
L 234.629371 674.843067 
L 230.727273 674.843067 
z
" style="fill:#1f77b4;"/>
   </g>
   <g id="patch_4">
    <path clip-path="url(#p84c5eb58b6)" d="M 259.993007 1260 
L 263.895105 1260 
L 263.895105 893.111998 
L 259.993007 893.111998 
z
" style="fill:#1f77b4;"/>
   </g>
   <g id="patch_5">
    <path clip-path="url(#p84c5eb58b6)" d="M 289.258741 1260 
L 293.160839 1260 
L 293.160839 637.075184 
L 289.258741 637.075184 
z
" style="fill:#1f77b4;"/>
   </g>
   <g id="patch_6">
    <path clip-path="url(#p84c5eb58b6)" d="M 318.524476 1260 
L 322.426573 1260 
L 322.426573 1259.509508 
L 318.524476 1259.509508 
z
" style="fill:#1f77b4;"/>
   </g>
   <g id="patch_7">
    <path clip-path="url(#p84c5eb58b6)" d="M 347.79021 1260 
L 351.692308 1260 
L 351.692308 1223.213101 
L 347.79021 1223.213101 
z
" style="fill:#1f77b4;"/>
   </g>
   <g id="patch_8">
    <path clip-path="url(#p84c5eb58b6)" d="M 377.055944 1260 
L 380.958042 1260 
L 380.958042 224.571429 
L 377.055944 224.571429 
z
" style="fill:#1f77b4;"/>
   </g>
   <g id="patch_9">
    <path clip-path="url(#p84c5eb58b6)" d="M 406.321678 1260 
L 410.223776 1260 
L 410.223776 1019.658929 
L 406.321678 1019.658929 
z
" style="fill:#1f77b4;"/>
   </g>
   <g id="patch_10">
    <path clip-path="url(#p84c5eb58b6)" d="M 435.587413 1260 
L 439.48951 1260 
L 439.48951 1145.224876 
L 435.587413 1145.224876 
z
" style="fill:#1f77b4;"/>
   </g>
   <g id="patch_11">
    <path clip-path="url(#p84c5eb58b6)" d="M 464.853147 1260 
L 468.755245 1260 
L 468.755245 1243.813765 
L 464.853147 1243.813765 
z
" style="fill:#1f77b4;"/>
   </g>
   <g id="patch_12">
    <path clip-path="url(#p84c5eb58b6)" d="M 494.118881 1260 
L 498.020979 1260 
L 498.020979 1260 
L 494.118881 1260 
z
" style="fill:#1f77b4;"/>
   </g>
   <g id="patch_13">
    <path clip-path="url(#p84c5eb58b6)" d="M 523.384615 1260 
L 527.286713 1260 
L 527.286713 1107.456994 
L 523.384615 1107.456994 
z
" style="fill:#1f77b4;"/>
   </g>
   <g id="patch_14">
    <path clip-path="url(#p84c5eb58b6)" d="M 552.65035 1260 
L 556.552448 1260 
L 556.552448 1260 
L 552.65035 1260 
z
" style="fill:#1f77b4;"/>
   </g>
   <g id="patch_15">
    <path clip-path="url(#p84c5eb58b6)" d="M 581.916084 1260 
L 585.818182 1260 
L 585.818182 896.05495 
L 581.916084 896.05495 
z
" style="fill:#1f77b4;"/>
   </g>
   <g id="patch_16">
    <path clip-path="url(#p84c5eb58b6)" d="M 611.181818 1260 
L 615.083916 1260 
L 615.083916 992.191378 
L 611.181818 992.191378 
z
" style="fill:#1f77b4;"/>
   </g>
   <g id="patch_17">
    <path clip-path="url(#p84c5eb58b6)" d="M 640.447552 1260 
L 644.34965 1260 
L 644.34965 1256.566556 
L 640.447552 1256.566556 
z
" style="fill:#1f77b4;"/>
   </g>
   <g id="patch_18">
    <path clip-path="url(#p84c5eb58b6)" d="M 669.713287 1260 
L 673.615385 1260 
L 673.615385 1105.004534 
L 669.713287 1105.004534 
z
" style="fill:#1f77b4;"/>
   </g>
   <g id="patch_19">
    <path clip-path="url(#p84c5eb58b6)" d="M 698.979021 1260 
L 702.881119 1260 
L 702.881119 776.865399 
L 698.979021 776.865399 
z
" style="fill:#1f77b4;"/>
   </g>
   <g id="patch_20">
    <path clip-path="url(#p84c5eb58b6)" d="M 728.244755 1260 
L 732.146853 1260 
L 732.146853 1163.37308 
L 728.244755 1163.37308 
z
" style="fill:#1f77b4;"/>
   </g>
   <g id="patch_21">
    <path clip-path="url(#p84c5eb58b6)" d="M 757.51049 1260 
L 761.412587 1260 
L 761.412587 1260 
L 757.51049 1260 
z
" style="fill:#1f77b4;"/>
   </g>
   <g id="patch_22">
    <path clip-path="url(#p84c5eb58b6)" d="M 786.776224 1260 
L 790.678322 1260 
L 790.678322 946.575624 
L 786.776224 946.575624 
z
" style="fill:#1f77b4;"/>
   </g>
   <g id="patch_23">
    <path clip-path="url(#p84c5eb58b6)" d="M 816.041958 1260 
L 819.944056 1260 
L 819.944056 1260 
L 816.041958 1260 
z
" style="fill:#1f77b4;"/>
   </g>
   <g id="patch_24">
    <path clip-path="url(#p84c5eb58b6)" d="M 845.307692 1260 
L 849.20979 1260 
L 849.20979 861.720512 
L 845.307692 861.720512 
z
" style="fill:#1f77b4;"/>
   </g>
   <g id="patch_25">
    <path clip-path="url(#p84c5eb58b6)" d="M 874.573427 1260 
L 878.475524 1260 
L 878.475524 1260 
L 874.573427 1260 
z
" style="fill:#1f77b4;"/>
   </g>
   <g id="patch_26">
    <path clip-path="url(#p84c5eb58b6)" d="M 903.839161 1260 
L 907.741259 1260 
L 907.741259 1120.209785 
L 903.839161 1120.209785 
z
" style="fill:#1f77b4;"/>
   </g>
   <g id="patch_27">
    <path clip-path="url(#p84c5eb58b6)" d="M 933.104895 1260 
L 937.006993 1260 
L 937.006993 1041.731069 
L 933.104895 1041.731069 
z
" style="fill:#1f77b4;"/>
   </g>
   <g id="patch_28">
    <path clip-path="url(#p84c5eb58b6)" d="M 962.370629 1260 
L 966.272727 1260 
L 966.272727 1073.613047 
L 962.370629 1073.613047 
z
" style="fill:#1f77b4;"/>
   </g>
   <g id="patch_29">
    <path clip-path="url(#p84c5eb58b6)" d="M 991.636364 1260 
L 995.538462 1260 
L 995.538462 1260 
L 991.636364 1260 
z
" style="fill:#1f77b4;"/>
   </g>
   <g id="patch_30">
    <path clip-path="url(#p84c5eb58b6)" d="M 1020.902098 1260 
L 1024.804196 1260 
L 1024.804196 1260 
L 1020.902098 1260 
z
" style="fill:#1f77b4;"/>
   </g>
   <g id="patch_31">
    <path clip-path="url(#p84c5eb58b6)" d="M 1050.167832 1260 
L 1054.06993 1260 
L 1054.06993 1260 
L 1050.167832 1260 
z
" style="fill:#1f77b4;"/>
   </g>
   <g id="patch_32">
    <path clip-path="url(#p84c5eb58b6)" d="M 1079.433566 1260 
L 1083.335664 1260 
L 1083.335664 829.838533 
L 1079.433566 829.838533 
z
" style="fill:#1f77b4;"/>
   </g>
   <g id="patch_33">
    <path clip-path="url(#p84c5eb58b6)" d="M 1108.699301 1260 
L 1112.601399 1260 
L 1112.601399 1260 
L 1108.699301 1260 
z
" style="fill:#1f77b4;"/>
   </g>
   <g id="patch_34">
    <path clip-path="url(#p84c5eb58b6)" d="M 1137.965035 1260 
L 1141.867133 1260 
L 1141.867133 1259.019016 
L 1137.965035 1259.019016 
z
" style="fill:#1f77b4;"/>
   </g>
   <g id="patch_35">
    <path clip-path="url(#p84c5eb58b6)" d="M 1167.230769 1260 
L 1171.132867 1260 
L 1171.132867 1260 
L 1167.230769 1260 
z
" style="fill:#1f77b4;"/>
   </g>
   <g id="patch_36">
    <path clip-path="url(#p84c5eb58b6)" d="M 1196.496503 1260 
L 1200.398601 1260 
L 1200.398601 1260 
L 1196.496503 1260 
z
" style="fill:#1f77b4;"/>
   </g>
   <g id="patch_37">
    <path clip-path="url(#p84c5eb58b6)" d="M 1225.762238 1260 
L 1229.664336 1260 
L 1229.664336 1260 
L 1225.762238 1260 
z
" style="fill:#1f77b4;"/>
   </g>
   <g id="patch_38">
    <path clip-path="url(#p84c5eb58b6)" d="M 234.629371 1260 
L 238.531469 1260 
L 238.531469 458.054887 
L 234.629371 458.054887 
z
" style="fill:#ff7f0e;"/>
   </g>
   <g id="patch_39">
    <path clip-path="url(#p84c5eb58b6)" d="M 263.895105 1260 
L 267.797203 1260 
L 267.797203 1174.332273 
L 263.895105 1174.332273 
z
" style="fill:#ff7f0e;"/>
   </g>
   <g id="patch_40">
    <path clip-path="url(#p84c5eb58b6)" d="M 293.160839 1260 
L 297.062937 1260 
L 297.062937 774.787512 
L 293.160839 774.787512 
z
" style="fill:#ff7f0e;"/>
   </g>
   <g id="patch_41">
    <path clip-path="url(#p84c5eb58b6)" d="M 322.426573 1260 
L 326.328671 1260 
L 326.328671 1259.762034 
L 322.426573 1259.762034 
z
" style="fill:#ff7f0e;"/>
   </g>
   <g id="patch_42">
    <path clip-path="url(#p84c5eb58b6)" d="M 351.692308 1260 
L 355.594406 1260 
L 355.594406 1123.8835 
L 351.692308 1123.8835 
z
" style="fill:#ff7f0e;"/>
   </g>
   <g id="patch_43">
    <path clip-path="url(#p84c5eb58b6)" d="M 380.958042 1260 
L 384.86014 1260 
L 384.86014 1092.472 
L 380.958042 1092.472 
z
" style="fill:#ff7f0e;"/>
   </g>
   <g id="patch_44">
    <path clip-path="url(#p84c5eb58b6)" d="M 410.223776 1260 
L 414.125874 1260 
L 414.125874 714.344171 
L 410.223776 714.344171 
z
" style="fill:#ff7f0e;"/>
   </g>
   <g id="patch_45">
    <path clip-path="url(#p84c5eb58b6)" d="M 439.48951 1260 
L 443.391608 1260 
L 443.391608 511.835183 
L 439.48951 511.835183 
z
" style="fill:#ff7f0e;"/>
   </g>
   <g id="patch_46">
    <path clip-path="url(#p84c5eb58b6)" d="M 468.755245 1260 
L 472.657343 1260 
L 472.657343 899.243682 
L 468.755245 899.243682 
z
" style="fill:#ff7f0e;"/>
   </g>
   <g id="patch_47">
    <path clip-path="url(#p84c5eb58b6)" d="M 498.020979 1260 
L 501.923077 1260 
L 501.923077 1260 
L 498.020979 1260 
z
" style="fill:#ff7f0e;"/>
   </g>
   <g id="patch_48">
    <path clip-path="url(#p84c5eb58b6)" d="M 527.286713 1260 
L 531.188811 1260 
L 531.188811 1138.637386 
L 527.286713 1138.637386 
z
" style="fill:#ff7f0e;"/>
   </g>
   <g id="patch_49">
    <path clip-path="url(#p84c5eb58b6)" d="M 556.552448 1260 
L 560.454545 1260 
L 560.454545 1260 
L 556.552448 1260 
z
" style="fill:#ff7f0e;"/>
   </g>
   <g id="patch_50">
    <path clip-path="url(#p84c5eb58b6)" d="M 585.818182 1260 
L 589.72028 1260 
L 589.72028 985.625307 
L 585.818182 985.625307 
z
" style="fill:#ff7f0e;"/>
   </g>
   <g id="patch_51">
    <path clip-path="url(#p84c5eb58b6)" d="M 615.083916 1260 
L 618.986014 1260 
L 618.986014 893.056569 
L 615.083916 893.056569 
z
" style="fill:#ff7f0e;"/>
   </g>
   <g id="patch_52">
    <path clip-path="url(#p84c5eb58b6)" d="M 644.34965 1260 
L 648.251748 1260 
L 648.251748 1259.286102 
L 644.34965 1259.286102 
z
" style="fill:#ff7f0e;"/>
   </g>
   <g id="patch_53">
    <path clip-path="url(#p84c5eb58b6)" d="M 673.615385 1260 
L 677.517483 1260 
L 677.517483 1259.286102 
L 673.615385 1259.286102 
z
" style="fill:#ff7f0e;"/>
   </g>
   <g id="patch_54">
    <path clip-path="url(#p84c5eb58b6)" d="M 702.881119 1260 
L 706.783217 1260 
L 706.783217 1020.606296 
L 702.881119 1020.606296 
z
" style="fill:#ff7f0e;"/>
   </g>
   <g id="patch_55">
    <path clip-path="url(#p84c5eb58b6)" d="M 732.146853 1260 
L 736.048951 1260 
L 736.048951 1019.416466 
L 732.146853 1019.416466 
z
" style="fill:#ff7f0e;"/>
   </g>
   <g id="patch_56">
    <path clip-path="url(#p84c5eb58b6)" d="M 761.412587 1260 
L 765.314685 1260 
L 765.314685 1260 
L 761.412587 1260 
z
" style="fill:#ff7f0e;"/>
   </g>
   <g id="patch_57">
    <path clip-path="url(#p84c5eb58b6)" d="M 790.678322 1260 
L 794.58042 1260 
L 794.58042 749.087194 
L 790.678322 749.087194 
z
" style="fill:#ff7f0e;"/>
   </g>
   <g id="patch_58">
    <path clip-path="url(#p84c5eb58b6)" d="M 819.944056 1260 
L 823.846154 1260 
L 823.846154 1260 
L 819.944056 1260 
z
" style="fill:#ff7f0e;"/>
   </g>
   <g id="patch_59">
    <path clip-path="url(#p84c5eb58b6)" d="M 849.20979 1260 
L 853.111888 1260 
L 853.111888 928.037557 
L 849.20979 928.037557 
z
" style="fill:#ff7f0e;"/>
   </g>
   <g id="patch_60">
    <path clip-path="url(#p84c5eb58b6)" d="M 878.475524 1260 
L 882.377622 1260 
L 882.377622 1260 
L 878.475524 1260 
z
" style="fill:#ff7f0e;"/>
   </g>
   <g id="patch_61">
    <path clip-path="url(#p84c5eb58b6)" d="M 907.741259 1260 
L 911.643357 1260 
L 911.643357 1119.362148 
L 907.741259 1119.362148 
z
" style="fill:#ff7f0e;"/>
   </g>
   <g id="patch_62">
    <path clip-path="url(#p84c5eb58b6)" d="M 937.006993 1260 
L 940.909091 1260 
L 940.909091 978.962262 
L 937.006993 978.962262 
z
" style="fill:#ff7f0e;"/>
   </g>
   <g id="patch_63">
    <path clip-path="url(#p84c5eb58b6)" d="M 966.272727 1260 
L 970.174825 1260 
L 970.174825 1139.58925 
L 966.272727 1139.58925 
z
" style="fill:#ff7f0e;"/>
   </g>
   <g id="patch_64">
    <path clip-path="url(#p84c5eb58b6)" d="M 995.538462 1260 
L 999.440559 1260 
L 999.440559 1260 
L 995.538462 1260 
z
" style="fill:#ff7f0e;"/>
   </g>
   <g id="patch_65">
    <path clip-path="url(#p84c5eb58b6)" d="M 1024.804196 1260 
L 1028.706294 1260 
L 1028.706294 1260 
L 1024.804196 1260 
z
" style="fill:#ff7f0e;"/>
   </g>
   <g id="patch_66">
    <path clip-path="url(#p84c5eb58b6)" d="M 1054.06993 1260 
L 1057.972028 1260 
L 1057.972028 1260 
L 1054.06993 1260 
z
" style="fill:#ff7f0e;"/>
   </g>
   <g id="patch_67">
    <path clip-path="url(#p84c5eb58b6)" d="M 1083.335664 1260 
L 1087.237762 1260 
L 1087.237762 992.050387 
L 1083.335664 992.050387 
z
" style="fill:#ff7f0e;"/>
   </g>
   <g id="patch_68">
    <path clip-path="url(#p84c5eb58b6)" d="M 1112.601399 1260 
L 1116.503497 1260 
L 1116.503497 1259.524068 
L 1112.601399 1259.524068 
z
" style="fill:#ff7f0e;"/>
   </g>
   <g id="patch_69">
    <path clip-path="url(#p84c5eb58b6)" d="M 1141.867133 1260 
L 1145.769231 1260 
L 1145.769231 1260 
L 1141.867133 1260 
z
" style="fill:#ff7f0e;"/>
   </g>
   <g id="patch_70">
    <path clip-path="url(#p84c5eb58b6)" d="M 1171.132867 1260 
L 1175.034965 1260 
L 1175.034965 1260 
L 1171.132867 1260 
z
" style="fill:#ff7f0e;"/>
   </g>
   <g id="patch_71">
    <path clip-path="url(#p84c5eb58b6)" d="M 1200.398601 1260 
L 1204.300699 1260 
L 1204.300699 1260 
L 1200.398601 1260 
z
" style="fill:#ff7f0e;"/>
   </g>
   <g id="patch_72">
    <path clip-path="url(#p84c5eb58b6)" d="M 1229.664336 1260 
L 1233.566434 1260 
L 1233.566434 1260 
L 1229.664336 1260 
z
" style="fill:#ff7f0e;"/>
   </g>
   <g id="patch_73">
    <path clip-path="url(#p84c5eb58b6)" d="M 238.531469 1260 
L 242.433566 1260 
L 242.433566 1210.365777 
L 238.531469 1210.365777 
z
" style="fill:#2ca02c;"/>
   </g>
   <g id="patch_74">
    <path clip-path="url(#p84c5eb58b6)" d="M 267.797203 1260 
L 271.699301 1260 
L 271.699301 1174.32073 
L 267.797203 1174.32073 
z
" style="fill:#2ca02c;"/>
   </g>
   <g id="patch_75">
    <path clip-path="url(#p84c5eb58b6)" d="M 297.062937 1260 
L 300.965035 1260 
L 300.965035 834.976848 
L 297.062937 834.976848 
z
" style="fill:#2ca02c;"/>
   </g>
   <g id="patch_76">
    <path clip-path="url(#p84c5eb58b6)" d="M 326.328671 1260 
L 330.230769 1260 
L 330.230769 1234.170929 
L 326.328671 1234.170929 
z
" style="fill:#2ca02c;"/>
   </g>
   <g id="patch_77">
    <path clip-path="url(#p84c5eb58b6)" d="M 355.594406 1260 
L 359.496503 1260 
L 359.496503 988.312865 
L 355.594406 988.312865 
z
" style="fill:#2ca02c;"/>
   </g>
   <g id="patch_78">
    <path clip-path="url(#p84c5eb58b6)" d="M 384.86014 1260 
L 388.762238 1260 
L 388.762238 723.757638 
L 384.86014 723.757638 
z
" style="fill:#2ca02c;"/>
   </g>
   <g id="patch_79">
    <path clip-path="url(#p84c5eb58b6)" d="M 414.125874 1260 
L 418.027972 1260 
L 418.027972 589.118784 
L 414.125874 589.118784 
z
" style="fill:#2ca02c;"/>
   </g>
   <g id="patch_80">
    <path clip-path="url(#p84c5eb58b6)" d="M 443.391608 1260 
L 447.293706 1260 
L 447.293706 284.856178 
L 443.391608 284.856178 
z
" style="fill:#2ca02c;"/>
   </g>
   <g id="patch_81">
    <path clip-path="url(#p84c5eb58b6)" d="M 472.657343 1260 
L 476.559441 1260 
L 476.559441 1141.938013 
L 472.657343 1141.938013 
z
" style="fill:#2ca02c;"/>
   </g>
   <g id="patch_82">
    <path clip-path="url(#p84c5eb58b6)" d="M 501.923077 1260 
L 505.825175 1260 
L 505.825175 1253.446355 
L 501.923077 1253.446355 
z
" style="fill:#2ca02c;"/>
   </g>
   <g id="patch_83">
    <path clip-path="url(#p84c5eb58b6)" d="M 531.188811 1260 
L 535.090909 1260 
L 535.090909 1182.609163 
L 531.188811 1182.609163 
z
" style="fill:#2ca02c;"/>
   </g>
   <g id="patch_84">
    <path clip-path="url(#p84c5eb58b6)" d="M 560.454545 1260 
L 564.356643 1260 
L 564.356643 1256.915932 
L 560.454545 1256.915932 
z
" style="fill:#2ca02c;"/>
   </g>
   <g id="patch_85">
    <path clip-path="url(#p84c5eb58b6)" d="M 589.72028 1260 
L 593.622378 1260 
L 593.622378 1159.18952 
L 589.72028 1159.18952 
z
" style="fill:#2ca02c;"/>
   </g>
   <g id="patch_86">
    <path clip-path="url(#p84c5eb58b6)" d="M 618.986014 1260 
L 622.888112 1260 
L 622.888112 1015.298462 
L 618.986014 1015.298462 
z
" style="fill:#2ca02c;"/>
   </g>
   <g id="patch_87">
    <path clip-path="url(#p84c5eb58b6)" d="M 648.251748 1260 
L 652.153846 1260 
L 652.153846 1136.251763 
L 648.251748 1136.251763 
z
" style="fill:#2ca02c;"/>
   </g>
   <g id="patch_88">
    <path clip-path="url(#p84c5eb58b6)" d="M 677.517483 1260 
L 681.41958 1260 
L 681.41958 1135.962631 
L 677.517483 1135.962631 
z
" style="fill:#2ca02c;"/>
   </g>
   <g id="patch_89">
    <path clip-path="url(#p84c5eb58b6)" d="M 706.783217 1260 
L 710.685315 1260 
L 710.685315 1015.298462 
L 706.783217 1015.298462 
z
" style="fill:#2ca02c;"/>
   </g>
   <g id="patch_90">
    <path clip-path="url(#p84c5eb58b6)" d="M 736.048951 1260 
L 739.951049 1260 
L 739.951049 901.477069 
L 736.048951 901.477069 
z
" style="fill:#2ca02c;"/>
   </g>
   <g id="patch_91">
    <path clip-path="url(#p84c5eb58b6)" d="M 765.314685 1260 
L 769.216783 1260 
L 769.216783 1244.19415 
L 765.314685 1244.19415 
z
" style="fill:#2ca02c;"/>
   </g>
   <g id="patch_92">
    <path clip-path="url(#p84c5eb58b6)" d="M 794.58042 1260 
L 798.482517 1260 
L 798.482517 554.037508 
L 794.58042 554.037508 
z
" style="fill:#2ca02c;"/>
   </g>
   <g id="patch_93">
    <path clip-path="url(#p84c5eb58b6)" d="M 823.846154 1260 
L 827.748252 1260 
L 827.748252 1250.458664 
L 823.846154 1250.458664 
z
" style="fill:#2ca02c;"/>
   </g>
   <g id="patch_94">
    <path clip-path="url(#p84c5eb58b6)" d="M 853.111888 1260 
L 857.013986 1260 
L 857.013986 730.504037 
L 853.111888 730.504037 
z
" style="fill:#2ca02c;"/>
   </g>
   <g id="patch_95">
    <path clip-path="url(#p84c5eb58b6)" d="M 882.377622 1260 
L 886.27972 1260 
L 886.27972 1260 
L 882.377622 1260 
z
" style="fill:#2ca02c;"/>
   </g>
   <g id="patch_96">
    <path clip-path="url(#p84c5eb58b6)" d="M 911.643357 1260 
L 915.545455 1260 
L 915.545455 1180.585243 
L 911.643357 1180.585243 
z
" style="fill:#2ca02c;"/>
   </g>
   <g id="patch_97">
    <path clip-path="url(#p84c5eb58b6)" d="M 940.909091 1260 
L 944.811189 1260 
L 944.811189 1108.013263 
L 940.909091 1108.013263 
z
" style="fill:#2ca02c;"/>
   </g>
   <g id="patch_98">
    <path clip-path="url(#p84c5eb58b6)" d="M 970.174825 1260 
L 974.076923 1260 
L 974.076923 1163.815622 
L 970.174825 1163.815622 
z
" style="fill:#2ca02c;"/>
   </g>
   <g id="patch_99">
    <path clip-path="url(#p84c5eb58b6)" d="M 999.440559 1260 
L 1003.342657 1260 
L 1003.342657 1260 
L 999.440559 1260 
z
" style="fill:#2ca02c;"/>
   </g>
   <g id="patch_100">
    <path clip-path="url(#p84c5eb58b6)" d="M 1028.706294 1260 
L 1032.608392 1260 
L 1032.608392 1259.903623 
L 1028.706294 1259.903623 
z
" style="fill:#2ca02c;"/>
   </g>
   <g id="patch_101">
    <path clip-path="url(#p84c5eb58b6)" d="M 1057.972028 1260 
L 1061.874126 1260 
L 1061.874126 1259.903623 
L 1057.972028 1259.903623 
z
" style="fill:#2ca02c;"/>
   </g>
   <g id="patch_102">
    <path clip-path="url(#p84c5eb58b6)" d="M 1087.237762 1260 
L 1091.13986 1260 
L 1091.13986 1163.526491 
L 1087.237762 1163.526491 
z
" style="fill:#2ca02c;"/>
   </g>
   <g id="patch_103">
    <path clip-path="url(#p84c5eb58b6)" d="M 1116.503497 1260 
L 1120.405594 1260 
L 1120.405594 1158.129371 
L 1116.503497 1158.129371 
z
" style="fill:#2ca02c;"/>
   </g>
   <g id="patch_104">
    <path clip-path="url(#p84c5eb58b6)" d="M 1145.769231 1260 
L 1149.671329 1260 
L 1149.671329 1259.903623 
L 1145.769231 1259.903623 
z
" style="fill:#2ca02c;"/>
   </g>
   <g id="patch_105">
    <path clip-path="url(#p84c5eb58b6)" d="M 1175.034965 1260 
L 1178.937063 1260 
L 1178.937063 1260 
L 1175.034965 1260 
z
" style="fill:#2ca02c;"/>
   </g>
   <g id="patch_106">
    <path clip-path="url(#p84c5eb58b6)" d="M 1204.300699 1260 
L 1208.202797 1260 
L 1208.202797 1260 
L 1204.300699 1260 
z
" style="fill:#2ca02c;"/>
   </g>
   <g id="patch_107">
    <path clip-path="url(#p84c5eb58b6)" d="M 1233.566434 1260 
L 1237.468531 1260 
L 1237.468531 1260 
L 1233.566434 1260 
z
" style="fill:#2ca02c;"/>
   </g>
   <g id="patch_108">
    <path clip-path="url(#p84c5eb58b6)" d="M 242.433566 1260 
L 246.335664 1260 
L 246.335664 999.891356 
L 242.433566 999.891356 
z
" style="fill:#d62728;"/>
   </g>
   <g id="patch_109">
    <path clip-path="url(#p84c5eb58b6)" d="M 271.699301 1260 
L 275.601399 1260 
L 275.601399 1121.137702 
L 271.699301 1121.137702 
z
" style="fill:#d62728;"/>
   </g>
   <g id="patch_110">
    <path clip-path="url(#p84c5eb58b6)" d="M 300.965035 1260 
L 304.867133 1260 
L 304.867133 726.418887 
L 300.965035 726.418887 
z
" style="fill:#d62728;"/>
   </g>
   <g id="patch_111">
    <path clip-path="url(#p84c5eb58b6)" d="M 330.230769 1260 
L 334.132867 1260 
L 334.132867 1259.878511 
L 330.230769 1259.878511 
z
" style="fill:#d62728;"/>
   </g>
   <g id="patch_112">
    <path clip-path="url(#p84c5eb58b6)" d="M 359.496503 1260 
L 363.398601 1260 
L 363.398601 1183.947683 
L 359.496503 1183.947683 
z
" style="fill:#d62728;"/>
   </g>
   <g id="patch_113">
    <path clip-path="url(#p84c5eb58b6)" d="M 388.762238 1260 
L 392.664336 1260 
L 392.664336 777.201425 
L 388.762238 777.201425 
z
" style="fill:#d62728;"/>
   </g>
   <g id="patch_114">
    <path clip-path="url(#p84c5eb58b6)" d="M 418.027972 1260 
L 421.93007 1260 
L 421.93007 989.807742 
L 418.027972 989.807742 
z
" style="fill:#d62728;"/>
   </g>
   <g id="patch_115">
    <path clip-path="url(#p84c5eb58b6)" d="M 447.293706 1260 
L 451.195804 1260 
L 451.195804 945.464139 
L 447.293706 945.464139 
z
" style="fill:#d62728;"/>
   </g>
   <g id="patch_116">
    <path clip-path="url(#p84c5eb58b6)" d="M 476.559441 1260 
L 480.461538 1260 
L 480.461538 1140.454505 
L 476.559441 1140.454505 
z
" style="fill:#d62728;"/>
   </g>
   <g id="patch_117">
    <path clip-path="url(#p84c5eb58b6)" d="M 505.825175 1260 
L 509.727273 1260 
L 509.727273 1260 
L 505.825175 1260 
z
" style="fill:#d62728;"/>
   </g>
   <g id="patch_118">
    <path clip-path="url(#p84c5eb58b6)" d="M 535.090909 1260 
L 538.993007 1260 
L 538.993007 1243.963409 
L 535.090909 1243.963409 
z
" style="fill:#d62728;"/>
   </g>
   <g id="patch_119">
    <path clip-path="url(#p84c5eb58b6)" d="M 564.356643 1260 
L 568.258741 1260 
L 568.258741 1259.878511 
L 564.356643 1259.878511 
z
" style="fill:#d62728;"/>
   </g>
   <g id="patch_120">
    <path clip-path="url(#p84c5eb58b6)" d="M 593.622378 1260 
L 597.524476 1260 
L 597.524476 232.929251 
L 593.622378 232.929251 
z
" style="fill:#d62728;"/>
   </g>
   <g id="patch_121">
    <path clip-path="url(#p84c5eb58b6)" d="M 622.888112 1260 
L 626.79021 1260 
L 626.79021 816.563966 
L 622.888112 816.563966 
z
" style="fill:#d62728;"/>
   </g>
   <g id="patch_122">
    <path clip-path="url(#p84c5eb58b6)" d="M 652.153846 1260 
L 656.055944 1260 
L 656.055944 1145.678546 
L 652.153846 1145.678546 
z
" style="fill:#d62728;"/>
   </g>
   <g id="patch_123">
    <path clip-path="url(#p84c5eb58b6)" d="M 681.41958 1260 
L 685.321678 1260 
L 685.321678 1151.510033 
L 681.41958 1151.510033 
z
" style="fill:#d62728;"/>
   </g>
   <g id="patch_124">
    <path clip-path="url(#p84c5eb58b6)" d="M 710.685315 1260 
L 714.587413 1260 
L 714.587413 786.434613 
L 710.685315 786.434613 
z
" style="fill:#d62728;"/>
   </g>
   <g id="patch_125">
    <path clip-path="url(#p84c5eb58b6)" d="M 739.951049 1260 
L 743.853147 1260 
L 743.853147 1035.730707 
L 739.951049 1035.730707 
z
" style="fill:#d62728;"/>
   </g>
   <g id="patch_126">
    <path clip-path="url(#p84c5eb58b6)" d="M 769.216783 1260 
L 773.118881 1260 
L 773.118881 1259.878511 
L 769.216783 1259.878511 
z
" style="fill:#d62728;"/>
   </g>
   <g id="patch_127">
    <path clip-path="url(#p84c5eb58b6)" d="M 798.482517 1260 
L 802.384615 1260 
L 802.384615 895.653516 
L 798.482517 895.653516 
z
" style="fill:#d62728;"/>
   </g>
   <g id="patch_128">
    <path clip-path="url(#p84c5eb58b6)" d="M 827.748252 1260 
L 831.65035 1260 
L 831.65035 1260 
L 827.748252 1260 
z
" style="fill:#d62728;"/>
   </g>
   <g id="patch_129">
    <path clip-path="url(#p84c5eb58b6)" d="M 857.013986 1260 
L 860.916084 1260 
L 860.916084 785.827167 
L 857.013986 785.827167 
z
" style="fill:#d62728;"/>
   </g>
   <g id="patch_130">
    <path clip-path="url(#p84c5eb58b6)" d="M 886.27972 1260 
L 890.181818 1260 
L 890.181818 1259.392553 
L 886.27972 1259.392553 
z
" style="fill:#d62728;"/>
   </g>
   <g id="patch_131">
    <path clip-path="url(#p84c5eb58b6)" d="M 915.545455 1260 
L 919.447552 1260 
L 919.447552 1132.679188 
L 915.545455 1132.679188 
z
" style="fill:#d62728;"/>
   </g>
   <g id="patch_132">
    <path clip-path="url(#p84c5eb58b6)" d="M 944.811189 1260 
L 948.713287 1260 
L 948.713287 1015.44199 
L 944.811189 1015.44199 
z
" style="fill:#d62728;"/>
   </g>
   <g id="patch_133">
    <path clip-path="url(#p84c5eb58b6)" d="M 974.076923 1260 
L 977.979021 1260 
L 977.979021 1010.339438 
L 974.076923 1010.339438 
z
" style="fill:#d62728;"/>
   </g>
   <g id="patch_134">
    <path clip-path="url(#p84c5eb58b6)" d="M 1003.342657 1260 
L 1007.244755 1260 
L 1007.244755 1240.804687 
L 1003.342657 1240.804687 
z
" style="fill:#d62728;"/>
   </g>
   <g id="patch_135">
    <path clip-path="url(#p84c5eb58b6)" d="M 1032.608392 1260 
L 1036.51049 1260 
L 1036.51049 1259.271064 
L 1032.608392 1259.271064 
z
" style="fill:#d62728;"/>
   </g>
   <g id="patch_136">
    <path clip-path="url(#p84c5eb58b6)" d="M 1061.874126 1260 
L 1065.776224 1260 
L 1065.776224 1244.206388 
L 1061.874126 1244.206388 
z
" style="fill:#d62728;"/>
   </g>
   <g id="patch_137">
    <path clip-path="url(#p84c5eb58b6)" d="M 1091.13986 1260 
L 1095.041958 1260 
L 1095.041958 1131.221316 
L 1091.13986 1131.221316 
z
" style="fill:#d62728;"/>
   </g>
   <g id="patch_138">
    <path clip-path="url(#p84c5eb58b6)" d="M 1120.405594 1260 
L 1124.307692 1260 
L 1124.307692 1259.878511 
L 1120.405594 1259.878511 
z
" style="fill:#d62728;"/>
   </g>
   <g id="patch_139">
    <path clip-path="url(#p84c5eb58b6)" d="M 1149.671329 1260 
L 1153.573427 1260 
L 1153.573427 1259.757021 
L 1149.671329 1259.757021 
z
" style="fill:#d62728;"/>
   </g>
   <g id="patch_140">
    <path clip-path="url(#p84c5eb58b6)" d="M 1178.937063 1260 
L 1182.839161 1260 
L 1182.839161 1260 
L 1178.937063 1260 
z
" style="fill:#d62728;"/>
   </g>
   <g id="patch_141">
    <path clip-path="url(#p84c5eb58b6)" d="M 1208.202797 1260 
L 1212.104895 1260 
L 1212.104895 1260 
L 1208.202797 1260 
z
" style="fill:#d62728;"/>
   </g>
   <g id="patch_142">
    <path clip-path="url(#p84c5eb58b6)" d="M 1237.468531 1260 
L 1241.370629 1260 
L 1241.370629 1260 
L 1237.468531 1260 
z
" style="fill:#d62728;"/>
   </g>
   <g id="patch_143">
    <path clip-path="url(#p84c5eb58b6)" d="M 246.335664 1260 
L 250.237762 1260 
L 250.237762 475.414896 
L 246.335664 475.414896 
z
" style="fill:#9467bd;"/>
   </g>
   <g id="patch_144">
    <path clip-path="url(#p84c5eb58b6)" d="M 275.601399 1260 
L 279.503497 1260 
L 279.503497 1154.117392 
L 275.601399 1154.117392 
z
" style="fill:#9467bd;"/>
   </g>
   <g id="patch_145">
    <path clip-path="url(#p84c5eb58b6)" d="M 304.867133 1260 
L 308.769231 1260 
L 308.769231 890.916313 
L 304.867133 890.916313 
z
" style="fill:#9467bd;"/>
   </g>
   <g id="patch_146">
    <path clip-path="url(#p84c5eb58b6)" d="M 334.132867 1260 
L 338.034965 1260 
L 338.034965 1259.749093 
L 334.132867 1259.749093 
z
" style="fill:#9467bd;"/>
   </g>
   <g id="patch_147">
    <path clip-path="url(#p84c5eb58b6)" d="M 363.398601 1260 
L 367.300699 1260 
L 367.300699 1259.498187 
L 363.398601 1259.498187 
z
" style="fill:#9467bd;"/>
   </g>
   <g id="patch_148">
    <path clip-path="url(#p84c5eb58b6)" d="M 392.664336 1260 
L 396.566434 1260 
L 396.566434 1080.09993 
L 392.664336 1080.09993 
z
" style="fill:#9467bd;"/>
   </g>
   <g id="patch_149">
    <path clip-path="url(#p84c5eb58b6)" d="M 421.93007 1260 
L 425.832168 1260 
L 425.832168 926.795965 
L 421.93007 926.795965 
z
" style="fill:#9467bd;"/>
   </g>
   <g id="patch_150">
    <path clip-path="url(#p84c5eb58b6)" d="M 451.195804 1260 
L 455.097902 1260 
L 455.097902 935.326791 
L 451.195804 935.326791 
z
" style="fill:#9467bd;"/>
   </g>
   <g id="patch_151">
    <path clip-path="url(#p84c5eb58b6)" d="M 480.461538 1260 
L 484.363636 1260 
L 484.363636 1165.157285 
L 480.461538 1165.157285 
z
" style="fill:#9467bd;"/>
   </g>
   <g id="patch_152">
    <path clip-path="url(#p84c5eb58b6)" d="M 509.727273 1260 
L 513.629371 1260 
L 513.629371 1259.749093 
L 509.727273 1259.749093 
z
" style="fill:#9467bd;"/>
   </g>
   <g id="patch_153">
    <path clip-path="url(#p84c5eb58b6)" d="M 538.993007 1260 
L 542.895105 1260 
L 542.895105 1183.222564 
L 538.993007 1183.222564 
z
" style="fill:#9467bd;"/>
   </g>
   <g id="patch_154">
    <path clip-path="url(#p84c5eb58b6)" d="M 568.258741 1260 
L 572.160839 1260 
L 572.160839 1260 
L 568.258741 1260 
z
" style="fill:#9467bd;"/>
   </g>
   <g id="patch_155">
    <path clip-path="url(#p84c5eb58b6)" d="M 597.524476 1260 
L 601.426573 1260 
L 601.426573 1133.543047 
L 597.524476 1133.543047 
z
" style="fill:#9467bd;"/>
   </g>
   <g id="patch_156">
    <path clip-path="url(#p84c5eb58b6)" d="M 626.79021 1260 
L 630.692308 1260 
L 630.692308 927.297778 
L 626.79021 927.297778 
z
" style="fill:#9467bd;"/>
   </g>
   <g id="patch_157">
    <path clip-path="url(#p84c5eb58b6)" d="M 656.055944 1260 
L 659.958042 1260 
L 659.958042 1256.98912 
L 656.055944 1256.98912 
z
" style="fill:#9467bd;"/>
   </g>
   <g id="patch_158">
    <path clip-path="url(#p84c5eb58b6)" d="M 685.321678 1260 
L 689.223776 1260 
L 689.223776 1235.912961 
L 685.321678 1235.912961 
z
" style="fill:#9467bd;"/>
   </g>
   <g id="patch_159">
    <path clip-path="url(#p84c5eb58b6)" d="M 714.587413 1260 
L 718.48951 1260 
L 718.48951 781.771919 
L 714.587413 781.771919 
z
" style="fill:#9467bd;"/>
   </g>
   <g id="patch_160">
    <path clip-path="url(#p84c5eb58b6)" d="M 743.853147 1260 
L 747.755245 1260 
L 747.755245 573.519397 
L 743.853147 573.519397 
z
" style="fill:#9467bd;"/>
   </g>
   <g id="patch_161">
    <path clip-path="url(#p84c5eb58b6)" d="M 773.118881 1260 
L 777.020979 1260 
L 777.020979 1260 
L 773.118881 1260 
z
" style="fill:#9467bd;"/>
   </g>
   <g id="patch_162">
    <path clip-path="url(#p84c5eb58b6)" d="M 802.384615 1260 
L 806.286713 1260 
L 806.286713 622.948008 
L 802.384615 622.948008 
z
" style="fill:#9467bd;"/>
   </g>
   <g id="patch_163">
    <path clip-path="url(#p84c5eb58b6)" d="M 831.65035 1260 
L 835.552448 1260 
L 835.552448 1259.749093 
L 831.65035 1259.749093 
z
" style="fill:#9467bd;"/>
   </g>
   <g id="patch_164">
    <path clip-path="url(#p84c5eb58b6)" d="M 860.916084 1260 
L 864.818182 1260 
L 864.818182 549.432358 
L 860.916084 549.432358 
z
" style="fill:#9467bd;"/>
   </g>
   <g id="patch_165">
    <path clip-path="url(#p84c5eb58b6)" d="M 890.181818 1260 
L 894.083916 1260 
L 894.083916 1259.749093 
L 890.181818 1259.749093 
z
" style="fill:#9467bd;"/>
   </g>
   <g id="patch_166">
    <path clip-path="url(#p84c5eb58b6)" d="M 919.447552 1260 
L 923.34965 1260 
L 923.34965 1106.696035 
L 919.447552 1106.696035 
z
" style="fill:#9467bd;"/>
   </g>
   <g id="patch_167">
    <path clip-path="url(#p84c5eb58b6)" d="M 948.713287 1260 
L 952.615385 1260 
L 952.615385 1052.751105 
L 948.713287 1052.751105 
z
" style="fill:#9467bd;"/>
   </g>
   <g id="patch_168">
    <path clip-path="url(#p84c5eb58b6)" d="M 977.979021 1260 
L 981.881119 1260 
L 981.881119 1162.146405 
L 977.979021 1162.146405 
z
" style="fill:#9467bd;"/>
   </g>
   <g id="patch_169">
    <path clip-path="url(#p84c5eb58b6)" d="M 1007.244755 1260 
L 1011.146853 1260 
L 1011.146853 1259.498187 
L 1007.244755 1259.498187 
z
" style="fill:#9467bd;"/>
   </g>
   <g id="patch_170">
    <path clip-path="url(#p84c5eb58b6)" d="M 1036.51049 1260 
L 1040.412587 1260 
L 1040.412587 1260 
L 1036.51049 1260 
z
" style="fill:#9467bd;"/>
   </g>
   <g id="patch_171">
    <path clip-path="url(#p84c5eb58b6)" d="M 1065.776224 1260 
L 1069.678322 1260 
L 1069.678322 1259.749093 
L 1065.776224 1259.749093 
z
" style="fill:#9467bd;"/>
   </g>
   <g id="patch_172">
    <path clip-path="url(#p84c5eb58b6)" d="M 1095.041958 1260 
L 1098.944056 1260 
L 1098.944056 921.276018 
L 1095.041958 921.276018 
z
" style="fill:#9467bd;"/>
   </g>
   <g id="patch_173">
    <path clip-path="url(#p84c5eb58b6)" d="M 1124.307692 1260 
L 1128.20979 1260 
L 1128.20979 1098.165209 
L 1124.307692 1098.165209 
z
" style="fill:#9467bd;"/>
   </g>
   <g id="patch_174">
    <path clip-path="url(#p84c5eb58b6)" d="M 1153.573427 1260 
L 1157.475524 1260 
L 1157.475524 1260 
L 1153.573427 1260 
z
" style="fill:#9467bd;"/>
   </g>
   <g id="patch_175">
    <path clip-path="url(#p84c5eb58b6)" d="M 1182.839161 1260 
L 1186.741259 1260 
L 1186.741259 1260 
L 1182.839161 1260 
z
" style="fill:#9467bd;"/>
   </g>
   <g id="patch_176">
    <path clip-path="url(#p84c5eb58b6)" d="M 1212.104895 1260 
L 1216.006993 1260 
L 1216.006993 1260 
L 1212.104895 1260 
z
" style="fill:#9467bd;"/>
   </g>
   <g id="patch_177">
    <path clip-path="url(#p84c5eb58b6)" d="M 1241.370629 1260 
L 1245.272727 1260 
L 1245.272727 1260 
L 1241.370629 1260 
z
" style="fill:#9467bd;"/>
   </g>
   <g id="matplotlib.axis_1">
    <g id="xtick_1">
     <g id="line2d_1">
      <defs>
       <path d="M 0 0 
L 0 3.5 
" id="mf095f404e2" style="stroke:#000000;stroke-width:0.8;"/>
      </defs>
      <g>
       <use style="stroke:#000000;stroke-width:0.8;" x="240.482517" xlink:href="#mf095f404e2" y="1260"/>
      </g>
     </g>
     <g id="text_1">
      <!-- 1 -->
      <defs>
       <path d="M 12.40625 8.296875 
L 28.515625 8.296875 
L 28.515625 63.921875 
L 10.984375 60.40625 
L 10.984375 69.390625 
L 28.421875 72.90625 
L 38.28125 72.90625 
L 38.28125 8.296875 
L 54.390625 8.296875 
L 54.390625 0 
L 12.40625 0 
z
" id="DejaVuSans-31"/>
      </defs>
      <g transform="translate(232.847517 1285.23625)scale(0.24 -0.24)">
       <use xlink:href="#DejaVuSans-31"/>
      </g>
     </g>
    </g>
    <g id="xtick_2">
     <g id="line2d_2">
      <g>
       <use style="stroke:#000000;stroke-width:0.8;" x="269.748252" xlink:href="#mf095f404e2" y="1260"/>
      </g>
     </g>
     <g id="text_2">
      <!-- 2 -->
      <defs>
       <path d="M 19.1875 8.296875 
L 53.609375 8.296875 
L 53.609375 0 
L 7.328125 0 
L 7.328125 8.296875 
Q 12.9375 14.109375 22.625 23.890625 
Q 32.328125 33.6875 34.8125 36.53125 
Q 39.546875 41.84375 41.421875 45.53125 
Q 43.3125 49.21875 43.3125 52.78125 
Q 43.3125 58.59375 39.234375 62.25 
Q 35.15625 65.921875 28.609375 65.921875 
Q 23.96875 65.921875 18.8125 64.3125 
Q 13.671875 62.703125 7.8125 59.421875 
L 7.8125 69.390625 
Q 13.765625 71.78125 18.9375 73 
Q 24.125 74.21875 28.421875 74.21875 
Q 39.75 74.21875 46.484375 68.546875 
Q 53.21875 62.890625 53.21875 53.421875 
Q 53.21875 48.921875 51.53125 44.890625 
Q 49.859375 40.875 45.40625 35.40625 
Q 44.1875 33.984375 37.640625 27.21875 
Q 31.109375 20.453125 19.1875 8.296875 
z
" id="DejaVuSans-32"/>
      </defs>
      <g transform="translate(262.113252 1285.23625)scale(0.24 -0.24)">
       <use xlink:href="#DejaVuSans-32"/>
      </g>
     </g>
    </g>
    <g id="xtick_3">
     <g id="line2d_3">
      <g>
       <use style="stroke:#000000;stroke-width:0.8;" x="299.013986" xlink:href="#mf095f404e2" y="1260"/>
      </g>
     </g>
     <g id="text_3">
      <!-- 3 -->
      <defs>
       <path d="M 40.578125 39.3125 
Q 47.65625 37.796875 51.625 33 
Q 55.609375 28.21875 55.609375 21.1875 
Q 55.609375 10.40625 48.1875 4.484375 
Q 40.765625 -1.421875 27.09375 -1.421875 
Q 22.515625 -1.421875 17.65625 -0.515625 
Q 12.796875 0.390625 7.625 2.203125 
L 7.625 11.71875 
Q 11.71875 9.328125 16.59375 8.109375 
Q 21.484375 6.890625 26.8125 6.890625 
Q 36.078125 6.890625 40.9375 10.546875 
Q 45.796875 14.203125 45.796875 21.1875 
Q 45.796875 27.640625 41.28125 31.265625 
Q 36.765625 34.90625 28.71875 34.90625 
L 20.21875 34.90625 
L 20.21875 43.015625 
L 29.109375 43.015625 
Q 36.375 43.015625 40.234375 45.921875 
Q 44.09375 48.828125 44.09375 54.296875 
Q 44.09375 59.90625 40.109375 62.90625 
Q 36.140625 65.921875 28.71875 65.921875 
Q 24.65625 65.921875 20.015625 65.03125 
Q 15.375 64.15625 9.8125 62.3125 
L 9.8125 71.09375 
Q 15.4375 72.65625 20.34375 73.4375 
Q 25.25 74.21875 29.59375 74.21875 
Q 40.828125 74.21875 47.359375 69.109375 
Q 53.90625 64.015625 53.90625 55.328125 
Q 53.90625 49.265625 50.4375 45.09375 
Q 46.96875 40.921875 40.578125 39.3125 
z
" id="DejaVuSans-33"/>
      </defs>
      <g transform="translate(291.378986 1285.23625)scale(0.24 -0.24)">
       <use xlink:href="#DejaVuSans-33"/>
      </g>
     </g>
    </g>
    <g id="xtick_4">
     <g id="line2d_4">
      <g>
       <use style="stroke:#000000;stroke-width:0.8;" x="328.27972" xlink:href="#mf095f404e2" y="1260"/>
      </g>
     </g>
     <g id="text_4">
      <!-- 4 -->
      <defs>
       <path d="M 37.796875 64.3125 
L 12.890625 25.390625 
L 37.796875 25.390625 
z
M 35.203125 72.90625 
L 47.609375 72.90625 
L 47.609375 25.390625 
L 58.015625 25.390625 
L 58.015625 17.1875 
L 47.609375 17.1875 
L 47.609375 0 
L 37.796875 0 
L 37.796875 17.1875 
L 4.890625 17.1875 
L 4.890625 26.703125 
z
" id="DejaVuSans-34"/>
      </defs>
      <g transform="translate(320.64472 1285.23625)scale(0.24 -0.24)">
       <use xlink:href="#DejaVuSans-34"/>
      </g>
     </g>
    </g>
    <g id="xtick_5">
     <g id="line2d_5">
      <g>
       <use style="stroke:#000000;stroke-width:0.8;" x="357.545455" xlink:href="#mf095f404e2" y="1260"/>
      </g>
     </g>
     <g id="text_5">
      <!-- 5 -->
      <defs>
       <path d="M 10.796875 72.90625 
L 49.515625 72.90625 
L 49.515625 64.59375 
L 19.828125 64.59375 
L 19.828125 46.734375 
Q 21.96875 47.46875 24.109375 47.828125 
Q 26.265625 48.1875 28.421875 48.1875 
Q 40.625 48.1875 47.75 41.5 
Q 54.890625 34.8125 54.890625 23.390625 
Q 54.890625 11.625 47.5625 5.09375 
Q 40.234375 -1.421875 26.90625 -1.421875 
Q 22.3125 -1.421875 17.546875 -0.640625 
Q 12.796875 0.140625 7.71875 1.703125 
L 7.71875 11.625 
Q 12.109375 9.234375 16.796875 8.0625 
Q 21.484375 6.890625 26.703125 6.890625 
Q 35.15625 6.890625 40.078125 11.328125 
Q 45.015625 15.765625 45.015625 23.390625 
Q 45.015625 31 40.078125 35.4375 
Q 35.15625 39.890625 26.703125 39.890625 
Q 22.75 39.890625 18.8125 39.015625 
Q 14.890625 38.140625 10.796875 36.28125 
z
" id="DejaVuSans-35"/>
      </defs>
      <g transform="translate(349.910455 1285.23625)scale(0.24 -0.24)">
       <use xlink:href="#DejaVuSans-35"/>
      </g>
     </g>
    </g>
    <g id="xtick_6">
     <g id="line2d_6">
      <g>
       <use style="stroke:#000000;stroke-width:0.8;" x="386.811189" xlink:href="#mf095f404e2" y="1260"/>
      </g>
     </g>
     <g id="text_6">
      <!-- 6 -->
      <defs>
       <path d="M 33.015625 40.375 
Q 26.375 40.375 22.484375 35.828125 
Q 18.609375 31.296875 18.609375 23.390625 
Q 18.609375 15.53125 22.484375 10.953125 
Q 26.375 6.390625 33.015625 6.390625 
Q 39.65625 6.390625 43.53125 10.953125 
Q 47.40625 15.53125 47.40625 23.390625 
Q 47.40625 31.296875 43.53125 35.828125 
Q 39.65625 40.375 33.015625 40.375 
z
M 52.59375 71.296875 
L 52.59375 62.3125 
Q 48.875 64.0625 45.09375 64.984375 
Q 41.3125 65.921875 37.59375 65.921875 
Q 27.828125 65.921875 22.671875 59.328125 
Q 17.53125 52.734375 16.796875 39.40625 
Q 19.671875 43.65625 24.015625 45.921875 
Q 28.375 48.1875 33.59375 48.1875 
Q 44.578125 48.1875 50.953125 41.515625 
Q 57.328125 34.859375 57.328125 23.390625 
Q 57.328125 12.15625 50.6875 5.359375 
Q 44.046875 -1.421875 33.015625 -1.421875 
Q 20.359375 -1.421875 13.671875 8.265625 
Q 6.984375 17.96875 6.984375 36.375 
Q 6.984375 53.65625 15.1875 63.9375 
Q 23.390625 74.21875 37.203125 74.21875 
Q 40.921875 74.21875 44.703125 73.484375 
Q 48.484375 72.75 52.59375 71.296875 
z
" id="DejaVuSans-36"/>
      </defs>
      <g transform="translate(379.176189 1285.23625)scale(0.24 -0.24)">
       <use xlink:href="#DejaVuSans-36"/>
      </g>
     </g>
    </g>
    <g id="xtick_7">
     <g id="line2d_7">
      <g>
       <use style="stroke:#000000;stroke-width:0.8;" x="416.076923" xlink:href="#mf095f404e2" y="1260"/>
      </g>
     </g>
     <g id="text_7">
      <!-- 7 -->
      <defs>
       <path d="M 8.203125 72.90625 
L 55.078125 72.90625 
L 55.078125 68.703125 
L 28.609375 0 
L 18.3125 0 
L 43.21875 64.59375 
L 8.203125 64.59375 
z
" id="DejaVuSans-37"/>
      </defs>
      <g transform="translate(408.441923 1285.23625)scale(0.24 -0.24)">
       <use xlink:href="#DejaVuSans-37"/>
      </g>
     </g>
    </g>
    <g id="xtick_8">
     <g id="line2d_8">
      <g>
       <use style="stroke:#000000;stroke-width:0.8;" x="445.342657" xlink:href="#mf095f404e2" y="1260"/>
      </g>
     </g>
     <g id="text_8">
      <!-- 8 -->
      <defs>
       <path d="M 31.78125 34.625 
Q 24.75 34.625 20.71875 30.859375 
Q 16.703125 27.09375 16.703125 20.515625 
Q 16.703125 13.921875 20.71875 10.15625 
Q 24.75 6.390625 31.78125 6.390625 
Q 38.8125 6.390625 42.859375 10.171875 
Q 46.921875 13.96875 46.921875 20.515625 
Q 46.921875 27.09375 42.890625 30.859375 
Q 38.875 34.625 31.78125 34.625 
z
M 21.921875 38.8125 
Q 15.578125 40.375 12.03125 44.71875 
Q 8.5 49.078125 8.5 55.328125 
Q 8.5 64.0625 14.71875 69.140625 
Q 20.953125 74.21875 31.78125 74.21875 
Q 42.671875 74.21875 48.875 69.140625 
Q 55.078125 64.0625 55.078125 55.328125 
Q 55.078125 49.078125 51.53125 44.71875 
Q 48 40.375 41.703125 38.8125 
Q 48.828125 37.15625 52.796875 32.3125 
Q 56.78125 27.484375 56.78125 20.515625 
Q 56.78125 9.90625 50.3125 4.234375 
Q 43.84375 -1.421875 31.78125 -1.421875 
Q 19.734375 -1.421875 13.25 4.234375 
Q 6.78125 9.90625 6.78125 20.515625 
Q 6.78125 27.484375 10.78125 32.3125 
Q 14.796875 37.15625 21.921875 38.8125 
z
M 18.3125 54.390625 
Q 18.3125 48.734375 21.84375 45.5625 
Q 25.390625 42.390625 31.78125 42.390625 
Q 38.140625 42.390625 41.71875 45.5625 
Q 45.3125 48.734375 45.3125 54.390625 
Q 45.3125 60.0625 41.71875 63.234375 
Q 38.140625 66.40625 31.78125 66.40625 
Q 25.390625 66.40625 21.84375 63.234375 
Q 18.3125 60.0625 18.3125 54.390625 
z
" id="DejaVuSans-38"/>
      </defs>
      <g transform="translate(437.707657 1285.23625)scale(0.24 -0.24)">
       <use xlink:href="#DejaVuSans-38"/>
      </g>
     </g>
    </g>
    <g id="xtick_9">
     <g id="line2d_9">
      <g>
       <use style="stroke:#000000;stroke-width:0.8;" x="474.608392" xlink:href="#mf095f404e2" y="1260"/>
      </g>
     </g>
     <g id="text_9">
      <!-- 9 -->
      <defs>
       <path d="M 10.984375 1.515625 
L 10.984375 10.5 
Q 14.703125 8.734375 18.5 7.8125 
Q 22.3125 6.890625 25.984375 6.890625 
Q 35.75 6.890625 40.890625 13.453125 
Q 46.046875 20.015625 46.78125 33.40625 
Q 43.953125 29.203125 39.59375 26.953125 
Q 35.25 24.703125 29.984375 24.703125 
Q 19.046875 24.703125 12.671875 31.3125 
Q 6.296875 37.9375 6.296875 49.421875 
Q 6.296875 60.640625 12.9375 67.421875 
Q 19.578125 74.21875 30.609375 74.21875 
Q 43.265625 74.21875 49.921875 64.515625 
Q 56.59375 54.828125 56.59375 36.375 
Q 56.59375 19.140625 48.40625 8.859375 
Q 40.234375 -1.421875 26.421875 -1.421875 
Q 22.703125 -1.421875 18.890625 -0.6875 
Q 15.09375 0.046875 10.984375 1.515625 
z
M 30.609375 32.421875 
Q 37.25 32.421875 41.125 36.953125 
Q 45.015625 41.5 45.015625 49.421875 
Q 45.015625 57.28125 41.125 61.84375 
Q 37.25 66.40625 30.609375 66.40625 
Q 23.96875 66.40625 20.09375 61.84375 
Q 16.21875 57.28125 16.21875 49.421875 
Q 16.21875 41.5 20.09375 36.953125 
Q 23.96875 32.421875 30.609375 32.421875 
z
" id="DejaVuSans-39"/>
      </defs>
      <g transform="translate(466.973392 1285.23625)scale(0.24 -0.24)">
       <use xlink:href="#DejaVuSans-39"/>
      </g>
     </g>
    </g>
    <g id="xtick_10">
     <g id="line2d_10">
      <g>
       <use style="stroke:#000000;stroke-width:0.8;" x="503.874126" xlink:href="#mf095f404e2" y="1260"/>
      </g>
     </g>
     <g id="text_10">
      <!-- 10 -->
      <defs>
       <path d="M 31.78125 66.40625 
Q 24.171875 66.40625 20.328125 58.90625 
Q 16.5 51.421875 16.5 36.375 
Q 16.5 21.390625 20.328125 13.890625 
Q 24.171875 6.390625 31.78125 6.390625 
Q 39.453125 6.390625 43.28125 13.890625 
Q 47.125 21.390625 47.125 36.375 
Q 47.125 51.421875 43.28125 58.90625 
Q 39.453125 66.40625 31.78125 66.40625 
z
M 31.78125 74.21875 
Q 44.046875 74.21875 50.515625 64.515625 
Q 56.984375 54.828125 56.984375 36.375 
Q 56.984375 17.96875 50.515625 8.265625 
Q 44.046875 -1.421875 31.78125 -1.421875 
Q 19.53125 -1.421875 13.0625 8.265625 
Q 6.59375 17.96875 6.59375 36.375 
Q 6.59375 54.828125 13.0625 64.515625 
Q 19.53125 74.21875 31.78125 74.21875 
z
" id="DejaVuSans-30"/>
      </defs>
      <g transform="translate(488.604126 1285.23625)scale(0.24 -0.24)">
       <use xlink:href="#DejaVuSans-31"/>
       <use x="63.623047" xlink:href="#DejaVuSans-30"/>
      </g>
     </g>
    </g>
    <g id="xtick_11">
     <g id="line2d_11">
      <g>
       <use style="stroke:#000000;stroke-width:0.8;" x="533.13986" xlink:href="#mf095f404e2" y="1260"/>
      </g>
     </g>
     <g id="text_11">
      <!-- 11 -->
      <g transform="translate(517.86986 1285.23625)scale(0.24 -0.24)">
       <use xlink:href="#DejaVuSans-31"/>
       <use x="63.623047" xlink:href="#DejaVuSans-31"/>
      </g>
     </g>
    </g>
    <g id="xtick_12">
     <g id="line2d_12">
      <g>
       <use style="stroke:#000000;stroke-width:0.8;" x="562.405594" xlink:href="#mf095f404e2" y="1260"/>
      </g>
     </g>
     <g id="text_12">
      <!-- 12 -->
      <g transform="translate(547.135594 1285.23625)scale(0.24 -0.24)">
       <use xlink:href="#DejaVuSans-31"/>
       <use x="63.623047" xlink:href="#DejaVuSans-32"/>
      </g>
     </g>
    </g>
    <g id="xtick_13">
     <g id="line2d_13">
      <g>
       <use style="stroke:#000000;stroke-width:0.8;" x="591.671329" xlink:href="#mf095f404e2" y="1260"/>
      </g>
     </g>
     <g id="text_13">
      <!-- 13 -->
      <g transform="translate(576.401329 1285.23625)scale(0.24 -0.24)">
       <use xlink:href="#DejaVuSans-31"/>
       <use x="63.623047" xlink:href="#DejaVuSans-33"/>
      </g>
     </g>
    </g>
    <g id="xtick_14">
     <g id="line2d_14">
      <g>
       <use style="stroke:#000000;stroke-width:0.8;" x="620.937063" xlink:href="#mf095f404e2" y="1260"/>
      </g>
     </g>
     <g id="text_14">
      <!-- 14 -->
      <g transform="translate(605.667063 1285.23625)scale(0.24 -0.24)">
       <use xlink:href="#DejaVuSans-31"/>
       <use x="63.623047" xlink:href="#DejaVuSans-34"/>
      </g>
     </g>
    </g>
    <g id="xtick_15">
     <g id="line2d_15">
      <g>
       <use style="stroke:#000000;stroke-width:0.8;" x="650.202797" xlink:href="#mf095f404e2" y="1260"/>
      </g>
     </g>
     <g id="text_15">
      <!-- 15 -->
      <g transform="translate(634.932797 1285.23625)scale(0.24 -0.24)">
       <use xlink:href="#DejaVuSans-31"/>
       <use x="63.623047" xlink:href="#DejaVuSans-35"/>
      </g>
     </g>
    </g>
    <g id="xtick_16">
     <g id="line2d_16">
      <g>
       <use style="stroke:#000000;stroke-width:0.8;" x="679.468531" xlink:href="#mf095f404e2" y="1260"/>
      </g>
     </g>
     <g id="text_16">
      <!-- 16 -->
      <g transform="translate(664.198531 1285.23625)scale(0.24 -0.24)">
       <use xlink:href="#DejaVuSans-31"/>
       <use x="63.623047" xlink:href="#DejaVuSans-36"/>
      </g>
     </g>
    </g>
    <g id="xtick_17">
     <g id="line2d_17">
      <g>
       <use style="stroke:#000000;stroke-width:0.8;" x="708.734266" xlink:href="#mf095f404e2" y="1260"/>
      </g>
     </g>
     <g id="text_17">
      <!-- 17 -->
      <g transform="translate(693.464266 1285.23625)scale(0.24 -0.24)">
       <use xlink:href="#DejaVuSans-31"/>
       <use x="63.623047" xlink:href="#DejaVuSans-37"/>
      </g>
     </g>
    </g>
    <g id="xtick_18">
     <g id="line2d_18">
      <g>
       <use style="stroke:#000000;stroke-width:0.8;" x="738" xlink:href="#mf095f404e2" y="1260"/>
      </g>
     </g>
     <g id="text_18">
      <!-- 18 -->
      <g transform="translate(722.73 1285.23625)scale(0.24 -0.24)">
       <use xlink:href="#DejaVuSans-31"/>
       <use x="63.623047" xlink:href="#DejaVuSans-38"/>
      </g>
     </g>
    </g>
    <g id="xtick_19">
     <g id="line2d_19">
      <g>
       <use style="stroke:#000000;stroke-width:0.8;" x="767.265734" xlink:href="#mf095f404e2" y="1260"/>
      </g>
     </g>
     <g id="text_19">
      <!-- 19 -->
      <g transform="translate(751.995734 1285.23625)scale(0.24 -0.24)">
       <use xlink:href="#DejaVuSans-31"/>
       <use x="63.623047" xlink:href="#DejaVuSans-39"/>
      </g>
     </g>
    </g>
    <g id="xtick_20">
     <g id="line2d_20">
      <g>
       <use style="stroke:#000000;stroke-width:0.8;" x="796.531469" xlink:href="#mf095f404e2" y="1260"/>
      </g>
     </g>
     <g id="text_20">
      <!-- 20 -->
      <g transform="translate(781.261469 1285.23625)scale(0.24 -0.24)">
       <use xlink:href="#DejaVuSans-32"/>
       <use x="63.623047" xlink:href="#DejaVuSans-30"/>
      </g>
     </g>
    </g>
    <g id="xtick_21">
     <g id="line2d_21">
      <g>
       <use style="stroke:#000000;stroke-width:0.8;" x="825.797203" xlink:href="#mf095f404e2" y="1260"/>
      </g>
     </g>
     <g id="text_21">
      <!-- 21 -->
      <g transform="translate(810.527203 1285.23625)scale(0.24 -0.24)">
       <use xlink:href="#DejaVuSans-32"/>
       <use x="63.623047" xlink:href="#DejaVuSans-31"/>
      </g>
     </g>
    </g>
    <g id="xtick_22">
     <g id="line2d_22">
      <g>
       <use style="stroke:#000000;stroke-width:0.8;" x="855.062937" xlink:href="#mf095f404e2" y="1260"/>
      </g>
     </g>
     <g id="text_22">
      <!-- 22 -->
      <g transform="translate(839.792937 1285.23625)scale(0.24 -0.24)">
       <use xlink:href="#DejaVuSans-32"/>
       <use x="63.623047" xlink:href="#DejaVuSans-32"/>
      </g>
     </g>
    </g>
    <g id="xtick_23">
     <g id="line2d_23">
      <g>
       <use style="stroke:#000000;stroke-width:0.8;" x="884.328671" xlink:href="#mf095f404e2" y="1260"/>
      </g>
     </g>
     <g id="text_23">
      <!-- 23 -->
      <g transform="translate(869.058671 1285.23625)scale(0.24 -0.24)">
       <use xlink:href="#DejaVuSans-32"/>
       <use x="63.623047" xlink:href="#DejaVuSans-33"/>
      </g>
     </g>
    </g>
    <g id="xtick_24">
     <g id="line2d_24">
      <g>
       <use style="stroke:#000000;stroke-width:0.8;" x="913.594406" xlink:href="#mf095f404e2" y="1260"/>
      </g>
     </g>
     <g id="text_24">
      <!-- 24 -->
      <g transform="translate(898.324406 1285.23625)scale(0.24 -0.24)">
       <use xlink:href="#DejaVuSans-32"/>
       <use x="63.623047" xlink:href="#DejaVuSans-34"/>
      </g>
     </g>
    </g>
    <g id="xtick_25">
     <g id="line2d_25">
      <g>
       <use style="stroke:#000000;stroke-width:0.8;" x="942.86014" xlink:href="#mf095f404e2" y="1260"/>
      </g>
     </g>
     <g id="text_25">
      <!-- 25 -->
      <g transform="translate(927.59014 1285.23625)scale(0.24 -0.24)">
       <use xlink:href="#DejaVuSans-32"/>
       <use x="63.623047" xlink:href="#DejaVuSans-35"/>
      </g>
     </g>
    </g>
    <g id="xtick_26">
     <g id="line2d_26">
      <g>
       <use style="stroke:#000000;stroke-width:0.8;" x="972.125874" xlink:href="#mf095f404e2" y="1260"/>
      </g>
     </g>
     <g id="text_26">
      <!-- 26 -->
      <g transform="translate(956.855874 1285.23625)scale(0.24 -0.24)">
       <use xlink:href="#DejaVuSans-32"/>
       <use x="63.623047" xlink:href="#DejaVuSans-36"/>
      </g>
     </g>
    </g>
    <g id="xtick_27">
     <g id="line2d_27">
      <g>
       <use style="stroke:#000000;stroke-width:0.8;" x="1001.391608" xlink:href="#mf095f404e2" y="1260"/>
      </g>
     </g>
     <g id="text_27">
      <!-- 27 -->
      <g transform="translate(986.121608 1285.23625)scale(0.24 -0.24)">
       <use xlink:href="#DejaVuSans-32"/>
       <use x="63.623047" xlink:href="#DejaVuSans-37"/>
      </g>
     </g>
    </g>
    <g id="xtick_28">
     <g id="line2d_28">
      <g>
       <use style="stroke:#000000;stroke-width:0.8;" x="1030.657343" xlink:href="#mf095f404e2" y="1260"/>
      </g>
     </g>
     <g id="text_28">
      <!-- 28 -->
      <g transform="translate(1015.387343 1285.23625)scale(0.24 -0.24)">
       <use xlink:href="#DejaVuSans-32"/>
       <use x="63.623047" xlink:href="#DejaVuSans-38"/>
      </g>
     </g>
    </g>
    <g id="xtick_29">
     <g id="line2d_29">
      <g>
       <use style="stroke:#000000;stroke-width:0.8;" x="1059.923077" xlink:href="#mf095f404e2" y="1260"/>
      </g>
     </g>
     <g id="text_29">
      <!-- 29 -->
      <g transform="translate(1044.653077 1285.23625)scale(0.24 -0.24)">
       <use xlink:href="#DejaVuSans-32"/>
       <use x="63.623047" xlink:href="#DejaVuSans-39"/>
      </g>
     </g>
    </g>
    <g id="xtick_30">
     <g id="line2d_30">
      <g>
       <use style="stroke:#000000;stroke-width:0.8;" x="1089.188811" xlink:href="#mf095f404e2" y="1260"/>
      </g>
     </g>
     <g id="text_30">
      <!-- 30 -->
      <g transform="translate(1073.918811 1285.23625)scale(0.24 -0.24)">
       <use xlink:href="#DejaVuSans-33"/>
       <use x="63.623047" xlink:href="#DejaVuSans-30"/>
      </g>
     </g>
    </g>
    <g id="xtick_31">
     <g id="line2d_31">
      <g>
       <use style="stroke:#000000;stroke-width:0.8;" x="1118.454545" xlink:href="#mf095f404e2" y="1260"/>
      </g>
     </g>
     <g id="text_31">
      <!-- 31 -->
      <g transform="translate(1103.184545 1285.23625)scale(0.24 -0.24)">
       <use xlink:href="#DejaVuSans-33"/>
       <use x="63.623047" xlink:href="#DejaVuSans-31"/>
      </g>
     </g>
    </g>
    <g id="xtick_32">
     <g id="line2d_32">
      <g>
       <use style="stroke:#000000;stroke-width:0.8;" x="1147.72028" xlink:href="#mf095f404e2" y="1260"/>
      </g>
     </g>
     <g id="text_32">
      <!-- 32 -->
      <g transform="translate(1132.45028 1285.23625)scale(0.24 -0.24)">
       <use xlink:href="#DejaVuSans-33"/>
       <use x="63.623047" xlink:href="#DejaVuSans-32"/>
      </g>
     </g>
    </g>
    <g id="xtick_33">
     <g id="line2d_33">
      <g>
       <use style="stroke:#000000;stroke-width:0.8;" x="1176.986014" xlink:href="#mf095f404e2" y="1260"/>
      </g>
     </g>
     <g id="text_33">
      <!-- 33 -->
      <g transform="translate(1161.716014 1285.23625)scale(0.24 -0.24)">
       <use xlink:href="#DejaVuSans-33"/>
       <use x="63.623047" xlink:href="#DejaVuSans-33"/>
      </g>
     </g>
    </g>
    <g id="xtick_34">
     <g id="line2d_34">
      <g>
       <use style="stroke:#000000;stroke-width:0.8;" x="1206.251748" xlink:href="#mf095f404e2" y="1260"/>
      </g>
     </g>
     <g id="text_34">
      <!-- 34 -->
      <g transform="translate(1190.981748 1285.23625)scale(0.24 -0.24)">
       <use xlink:href="#DejaVuSans-33"/>
       <use x="63.623047" xlink:href="#DejaVuSans-34"/>
      </g>
     </g>
    </g>
    <g id="xtick_35">
     <g id="line2d_35">
      <g>
       <use style="stroke:#000000;stroke-width:0.8;" x="1235.517483" xlink:href="#mf095f404e2" y="1260"/>
      </g>
     </g>
     <g id="text_35">
      <!-- 35 -->
      <g transform="translate(1220.247483 1285.23625)scale(0.24 -0.24)">
       <use xlink:href="#DejaVuSans-33"/>
       <use x="63.623047" xlink:href="#DejaVuSans-35"/>
      </g>
     </g>
    </g>
    <g id="text_36">
     <!-- Line Number -->
     <defs>
      <path d="M 9.8125 72.90625 
L 19.671875 72.90625 
L 19.671875 8.296875 
L 55.171875 8.296875 
L 55.171875 0 
L 9.8125 0 
z
" id="DejaVuSans-4c"/>
      <path d="M 9.421875 54.6875 
L 18.40625 54.6875 
L 18.40625 0 
L 9.421875 0 
z
M 9.421875 75.984375 
L 18.40625 75.984375 
L 18.40625 64.59375 
L 9.421875 64.59375 
z
" id="DejaVuSans-69"/>
      <path d="M 54.890625 33.015625 
L 54.890625 0 
L 45.90625 0 
L 45.90625 32.71875 
Q 45.90625 40.484375 42.875 44.328125 
Q 39.84375 48.1875 33.796875 48.1875 
Q 26.515625 48.1875 22.3125 43.546875 
Q 18.109375 38.921875 18.109375 30.90625 
L 18.109375 0 
L 9.078125 0 
L 9.078125 54.6875 
L 18.109375 54.6875 
L 18.109375 46.1875 
Q 21.34375 51.125 25.703125 53.5625 
Q 30.078125 56 35.796875 56 
Q 45.21875 56 50.046875 50.171875 
Q 54.890625 44.34375 54.890625 33.015625 
z
" id="DejaVuSans-6e"/>
      <path d="M 56.203125 29.59375 
L 56.203125 25.203125 
L 14.890625 25.203125 
Q 15.484375 15.921875 20.484375 11.0625 
Q 25.484375 6.203125 34.421875 6.203125 
Q 39.59375 6.203125 44.453125 7.46875 
Q 49.3125 8.734375 54.109375 11.28125 
L 54.109375 2.78125 
Q 49.265625 0.734375 44.1875 -0.34375 
Q 39.109375 -1.421875 33.890625 -1.421875 
Q 20.796875 -1.421875 13.15625 6.1875 
Q 5.515625 13.8125 5.515625 26.8125 
Q 5.515625 40.234375 12.765625 48.109375 
Q 20.015625 56 32.328125 56 
Q 43.359375 56 49.78125 48.890625 
Q 56.203125 41.796875 56.203125 29.59375 
z
M 47.21875 32.234375 
Q 47.125 39.59375 43.09375 43.984375 
Q 39.0625 48.390625 32.421875 48.390625 
Q 24.90625 48.390625 20.390625 44.140625 
Q 15.875 39.890625 15.1875 32.171875 
z
" id="DejaVuSans-65"/>
      <path id="DejaVuSans-20"/>
      <path d="M 9.8125 72.90625 
L 23.09375 72.90625 
L 55.421875 11.921875 
L 55.421875 72.90625 
L 64.984375 72.90625 
L 64.984375 0 
L 51.703125 0 
L 19.390625 60.984375 
L 19.390625 0 
L 9.8125 0 
z
" id="DejaVuSans-4e"/>
      <path d="M 8.5 21.578125 
L 8.5 54.6875 
L 17.484375 54.6875 
L 17.484375 21.921875 
Q 17.484375 14.15625 20.5 10.265625 
Q 23.53125 6.390625 29.59375 6.390625 
Q 36.859375 6.390625 41.078125 11.03125 
Q 45.3125 15.671875 45.3125 23.6875 
L 45.3125 54.6875 
L 54.296875 54.6875 
L 54.296875 0 
L 45.3125 0 
L 45.3125 8.40625 
Q 42.046875 3.421875 37.71875 1 
Q 33.40625 -1.421875 27.6875 -1.421875 
Q 18.265625 -1.421875 13.375 4.4375 
Q 8.5 10.296875 8.5 21.578125 
z
M 31.109375 56 
z
" id="DejaVuSans-75"/>
      <path d="M 52 44.1875 
Q 55.375 50.25 60.0625 53.125 
Q 64.75 56 71.09375 56 
Q 79.640625 56 84.28125 50.015625 
Q 88.921875 44.046875 88.921875 33.015625 
L 88.921875 0 
L 79.890625 0 
L 79.890625 32.71875 
Q 79.890625 40.578125 77.09375 44.375 
Q 74.3125 48.1875 68.609375 48.1875 
Q 61.625 48.1875 57.5625 43.546875 
Q 53.515625 38.921875 53.515625 30.90625 
L 53.515625 0 
L 44.484375 0 
L 44.484375 32.71875 
Q 44.484375 40.625 41.703125 44.40625 
Q 38.921875 48.1875 33.109375 48.1875 
Q 26.21875 48.1875 22.15625 43.53125 
Q 18.109375 38.875 18.109375 30.90625 
L 18.109375 0 
L 9.078125 0 
L 9.078125 54.6875 
L 18.109375 54.6875 
L 18.109375 46.1875 
Q 21.1875 51.21875 25.484375 53.609375 
Q 29.78125 56 35.6875 56 
Q 41.65625 56 45.828125 52.96875 
Q 50 49.953125 52 44.1875 
z
" id="DejaVuSans-6d"/>
      <path d="M 48.6875 27.296875 
Q 48.6875 37.203125 44.609375 42.84375 
Q 40.53125 48.484375 33.40625 48.484375 
Q 26.265625 48.484375 22.1875 42.84375 
Q 18.109375 37.203125 18.109375 27.296875 
Q 18.109375 17.390625 22.1875 11.75 
Q 26.265625 6.109375 33.40625 6.109375 
Q 40.53125 6.109375 44.609375 11.75 
Q 48.6875 17.390625 48.6875 27.296875 
z
M 18.109375 46.390625 
Q 20.953125 51.265625 25.265625 53.625 
Q 29.59375 56 35.59375 56 
Q 45.5625 56 51.78125 48.09375 
Q 58.015625 40.1875 58.015625 27.296875 
Q 58.015625 14.40625 51.78125 6.484375 
Q 45.5625 -1.421875 35.59375 -1.421875 
Q 29.59375 -1.421875 25.265625 0.953125 
Q 20.953125 3.328125 18.109375 8.203125 
L 18.109375 0 
L 9.078125 0 
L 9.078125 75.984375 
L 18.109375 75.984375 
z
" id="DejaVuSans-62"/>
      <path d="M 41.109375 46.296875 
Q 39.59375 47.171875 37.8125 47.578125 
Q 36.03125 48 33.890625 48 
Q 26.265625 48 22.1875 43.046875 
Q 18.109375 38.09375 18.109375 28.8125 
L 18.109375 0 
L 9.078125 0 
L 9.078125 54.6875 
L 18.109375 54.6875 
L 18.109375 46.1875 
Q 20.953125 51.171875 25.484375 53.578125 
Q 30.03125 56 36.53125 56 
Q 37.453125 56 38.578125 55.875 
Q 39.703125 55.765625 41.0625 55.515625 
z
" id="DejaVuSans-72"/>
     </defs>
     <g transform="translate(689.857031 1305.625156)scale(0.15 -0.15)">
      <use xlink:href="#DejaVuSans-4c"/>
      <use x="55.712891" xlink:href="#DejaVuSans-69"/>
      <use x="83.496094" xlink:href="#DejaVuSans-6e"/>
      <use x="146.875" xlink:href="#DejaVuSans-65"/>
      <use x="208.398438" xlink:href="#DejaVuSans-20"/>
      <use x="240.185547" xlink:href="#DejaVuSans-4e"/>
      <use x="314.990234" xlink:href="#DejaVuSans-75"/>
      <use x="378.369141" xlink:href="#DejaVuSans-6d"/>
      <use x="475.78125" xlink:href="#DejaVuSans-62"/>
      <use x="539.257812" xlink:href="#DejaVuSans-65"/>
      <use x="600.78125" xlink:href="#DejaVuSans-72"/>
     </g>
    </g>
   </g>
   <g id="matplotlib.axis_2">
    <g id="ytick_1">
     <g id="line2d_36">
      <defs>
       <path d="M 0 0 
L -3.5 0 
" id="m656a630e28" style="stroke:#000000;stroke-width:0.8;"/>
      </defs>
      <g>
       <use style="stroke:#000000;stroke-width:0.8;" x="180" xlink:href="#m656a630e28" y="1260"/>
      </g>
     </g>
     <g id="text_37">
      <!-- 0.00 -->
      <defs>
       <path d="M 10.6875 12.40625 
L 21 12.40625 
L 21 0 
L 10.6875 0 
z
" id="DejaVuSans-2e"/>
      </defs>
      <g transform="translate(119.5625 1269.118125)scale(0.24 -0.24)">
       <use xlink:href="#DejaVuSans-30"/>
       <use x="63.623047" xlink:href="#DejaVuSans-2e"/>
       <use x="95.410156" xlink:href="#DejaVuSans-30"/>
       <use x="159.033203" xlink:href="#DejaVuSans-30"/>
      </g>
     </g>
    </g>
    <g id="ytick_2">
     <g id="line2d_37">
      <g>
       <use style="stroke:#000000;stroke-width:0.8;" x="180" xlink:href="#m656a630e28" y="1135.424847"/>
      </g>
     </g>
     <g id="text_38">
      <!-- 0.02 -->
      <g transform="translate(119.5625 1144.542972)scale(0.24 -0.24)">
       <use xlink:href="#DejaVuSans-30"/>
       <use x="63.623047" xlink:href="#DejaVuSans-2e"/>
       <use x="95.410156" xlink:href="#DejaVuSans-30"/>
       <use x="159.033203" xlink:href="#DejaVuSans-32"/>
      </g>
     </g>
    </g>
    <g id="ytick_3">
     <g id="line2d_38">
      <g>
       <use style="stroke:#000000;stroke-width:0.8;" x="180" xlink:href="#m656a630e28" y="1010.849693"/>
      </g>
     </g>
     <g id="text_39">
      <!-- 0.04 -->
      <g transform="translate(119.5625 1019.967818)scale(0.24 -0.24)">
       <use xlink:href="#DejaVuSans-30"/>
       <use x="63.623047" xlink:href="#DejaVuSans-2e"/>
       <use x="95.410156" xlink:href="#DejaVuSans-30"/>
       <use x="159.033203" xlink:href="#DejaVuSans-34"/>
      </g>
     </g>
    </g>
    <g id="ytick_4">
     <g id="line2d_39">
      <g>
       <use style="stroke:#000000;stroke-width:0.8;" x="180" xlink:href="#m656a630e28" y="886.27454"/>
      </g>
     </g>
     <g id="text_40">
      <!-- 0.06 -->
      <g transform="translate(119.5625 895.392665)scale(0.24 -0.24)">
       <use xlink:href="#DejaVuSans-30"/>
       <use x="63.623047" xlink:href="#DejaVuSans-2e"/>
       <use x="95.410156" xlink:href="#DejaVuSans-30"/>
       <use x="159.033203" xlink:href="#DejaVuSans-36"/>
      </g>
     </g>
    </g>
    <g id="ytick_5">
     <g id="line2d_40">
      <g>
       <use style="stroke:#000000;stroke-width:0.8;" x="180" xlink:href="#m656a630e28" y="761.699387"/>
      </g>
     </g>
     <g id="text_41">
      <!-- 0.08 -->
      <g transform="translate(119.5625 770.817512)scale(0.24 -0.24)">
       <use xlink:href="#DejaVuSans-30"/>
       <use x="63.623047" xlink:href="#DejaVuSans-2e"/>
       <use x="95.410156" xlink:href="#DejaVuSans-30"/>
       <use x="159.033203" xlink:href="#DejaVuSans-38"/>
      </g>
     </g>
    </g>
    <g id="ytick_6">
     <g id="line2d_41">
      <g>
       <use style="stroke:#000000;stroke-width:0.8;" x="180" xlink:href="#m656a630e28" y="637.124234"/>
      </g>
     </g>
     <g id="text_42">
      <!-- 0.10 -->
      <g transform="translate(119.5625 646.242359)scale(0.24 -0.24)">
       <use xlink:href="#DejaVuSans-30"/>
       <use x="63.623047" xlink:href="#DejaVuSans-2e"/>
       <use x="95.410156" xlink:href="#DejaVuSans-31"/>
       <use x="159.033203" xlink:href="#DejaVuSans-30"/>
      </g>
     </g>
    </g>
    <g id="ytick_7">
     <g id="line2d_42">
      <g>
       <use style="stroke:#000000;stroke-width:0.8;" x="180" xlink:href="#m656a630e28" y="512.54908"/>
      </g>
     </g>
     <g id="text_43">
      <!-- 0.12 -->
      <g transform="translate(119.5625 521.667205)scale(0.24 -0.24)">
       <use xlink:href="#DejaVuSans-30"/>
       <use x="63.623047" xlink:href="#DejaVuSans-2e"/>
       <use x="95.410156" xlink:href="#DejaVuSans-31"/>
       <use x="159.033203" xlink:href="#DejaVuSans-32"/>
      </g>
     </g>
    </g>
    <g id="ytick_8">
     <g id="line2d_43">
      <g>
       <use style="stroke:#000000;stroke-width:0.8;" x="180" xlink:href="#m656a630e28" y="387.973927"/>
      </g>
     </g>
     <g id="text_44">
      <!-- 0.14 -->
      <g transform="translate(119.5625 397.092052)scale(0.24 -0.24)">
       <use xlink:href="#DejaVuSans-30"/>
       <use x="63.623047" xlink:href="#DejaVuSans-2e"/>
       <use x="95.410156" xlink:href="#DejaVuSans-31"/>
       <use x="159.033203" xlink:href="#DejaVuSans-34"/>
      </g>
     </g>
    </g>
    <g id="ytick_9">
     <g id="line2d_44">
      <g>
       <use style="stroke:#000000;stroke-width:0.8;" x="180" xlink:href="#m656a630e28" y="263.398774"/>
      </g>
     </g>
     <g id="text_45">
      <!-- 0.16 -->
      <g transform="translate(119.5625 272.516899)scale(0.24 -0.24)">
       <use xlink:href="#DejaVuSans-30"/>
       <use x="63.623047" xlink:href="#DejaVuSans-2e"/>
       <use x="95.410156" xlink:href="#DejaVuSans-31"/>
       <use x="159.033203" xlink:href="#DejaVuSans-36"/>
      </g>
     </g>
    </g>
    <g id="text_46">
     <!-- Fraction of total fixation time -->
     <defs>
      <path d="M 9.8125 72.90625 
L 51.703125 72.90625 
L 51.703125 64.59375 
L 19.671875 64.59375 
L 19.671875 43.109375 
L 48.578125 43.109375 
L 48.578125 34.8125 
L 19.671875 34.8125 
L 19.671875 0 
L 9.8125 0 
z
" id="DejaVuSans-46"/>
      <path d="M 34.28125 27.484375 
Q 23.390625 27.484375 19.1875 25 
Q 14.984375 22.515625 14.984375 16.5 
Q 14.984375 11.71875 18.140625 8.90625 
Q 21.296875 6.109375 26.703125 6.109375 
Q 34.1875 6.109375 38.703125 11.40625 
Q 43.21875 16.703125 43.21875 25.484375 
L 43.21875 27.484375 
z
M 52.203125 31.203125 
L 52.203125 0 
L 43.21875 0 
L 43.21875 8.296875 
Q 40.140625 3.328125 35.546875 0.953125 
Q 30.953125 -1.421875 24.3125 -1.421875 
Q 15.921875 -1.421875 10.953125 3.296875 
Q 6 8.015625 6 15.921875 
Q 6 25.140625 12.171875 29.828125 
Q 18.359375 34.515625 30.609375 34.515625 
L 43.21875 34.515625 
L 43.21875 35.40625 
Q 43.21875 41.609375 39.140625 45 
Q 35.0625 48.390625 27.6875 48.390625 
Q 23 48.390625 18.546875 47.265625 
Q 14.109375 46.140625 10.015625 43.890625 
L 10.015625 52.203125 
Q 14.9375 54.109375 19.578125 55.046875 
Q 24.21875 56 28.609375 56 
Q 40.484375 56 46.34375 49.84375 
Q 52.203125 43.703125 52.203125 31.203125 
z
" id="DejaVuSans-61"/>
      <path d="M 48.78125 52.59375 
L 48.78125 44.1875 
Q 44.96875 46.296875 41.140625 47.34375 
Q 37.3125 48.390625 33.40625 48.390625 
Q 24.65625 48.390625 19.8125 42.84375 
Q 14.984375 37.3125 14.984375 27.296875 
Q 14.984375 17.28125 19.8125 11.734375 
Q 24.65625 6.203125 33.40625 6.203125 
Q 37.3125 6.203125 41.140625 7.25 
Q 44.96875 8.296875 48.78125 10.40625 
L 48.78125 2.09375 
Q 45.015625 0.34375 40.984375 -0.53125 
Q 36.96875 -1.421875 32.421875 -1.421875 
Q 20.0625 -1.421875 12.78125 6.34375 
Q 5.515625 14.109375 5.515625 27.296875 
Q 5.515625 40.671875 12.859375 48.328125 
Q 20.21875 56 33.015625 56 
Q 37.15625 56 41.109375 55.140625 
Q 45.0625 54.296875 48.78125 52.59375 
z
" id="DejaVuSans-63"/>
      <path d="M 18.3125 70.21875 
L 18.3125 54.6875 
L 36.8125 54.6875 
L 36.8125 47.703125 
L 18.3125 47.703125 
L 18.3125 18.015625 
Q 18.3125 11.328125 20.140625 9.421875 
Q 21.96875 7.515625 27.59375 7.515625 
L 36.8125 7.515625 
L 36.8125 0 
L 27.59375 0 
Q 17.1875 0 13.234375 3.875 
Q 9.28125 7.765625 9.28125 18.015625 
L 9.28125 47.703125 
L 2.6875 47.703125 
L 2.6875 54.6875 
L 9.28125 54.6875 
L 9.28125 70.21875 
z
" id="DejaVuSans-74"/>
      <path d="M 30.609375 48.390625 
Q 23.390625 48.390625 19.1875 42.75 
Q 14.984375 37.109375 14.984375 27.296875 
Q 14.984375 17.484375 19.15625 11.84375 
Q 23.34375 6.203125 30.609375 6.203125 
Q 37.796875 6.203125 41.984375 11.859375 
Q 46.1875 17.53125 46.1875 27.296875 
Q 46.1875 37.015625 41.984375 42.703125 
Q 37.796875 48.390625 30.609375 48.390625 
z
M 30.609375 56 
Q 42.328125 56 49.015625 48.375 
Q 55.71875 40.765625 55.71875 27.296875 
Q 55.71875 13.875 49.015625 6.21875 
Q 42.328125 -1.421875 30.609375 -1.421875 
Q 18.84375 -1.421875 12.171875 6.21875 
Q 5.515625 13.875 5.515625 27.296875 
Q 5.515625 40.765625 12.171875 48.375 
Q 18.84375 56 30.609375 56 
z
" id="DejaVuSans-6f"/>
      <path d="M 37.109375 75.984375 
L 37.109375 68.5 
L 28.515625 68.5 
Q 23.6875 68.5 21.796875 66.546875 
Q 19.921875 64.59375 19.921875 59.515625 
L 19.921875 54.6875 
L 34.71875 54.6875 
L 34.71875 47.703125 
L 19.921875 47.703125 
L 19.921875 0 
L 10.890625 0 
L 10.890625 47.703125 
L 2.296875 47.703125 
L 2.296875 54.6875 
L 10.890625 54.6875 
L 10.890625 58.5 
Q 10.890625 67.625 15.140625 71.796875 
Q 19.390625 75.984375 28.609375 75.984375 
z
" id="DejaVuSans-66"/>
      <path d="M 9.421875 75.984375 
L 18.40625 75.984375 
L 18.40625 0 
L 9.421875 0 
z
" id="DejaVuSans-6c"/>
      <path d="M 54.890625 54.6875 
L 35.109375 28.078125 
L 55.90625 0 
L 45.3125 0 
L 29.390625 21.484375 
L 13.484375 0 
L 2.875 0 
L 24.125 28.609375 
L 4.6875 54.6875 
L 15.28125 54.6875 
L 29.78125 35.203125 
L 44.28125 54.6875 
z
" id="DejaVuSans-78"/>
     </defs>
     <g transform="translate(110.57125 891.530625)rotate(-90)scale(0.24 -0.24)">
      <use xlink:href="#DejaVuSans-46"/>
      <use x="57.410156" xlink:href="#DejaVuSans-72"/>
      <use x="98.523438" xlink:href="#DejaVuSans-61"/>
      <use x="159.802734" xlink:href="#DejaVuSans-63"/>
      <use x="214.783203" xlink:href="#DejaVuSans-74"/>
      <use x="253.992188" xlink:href="#DejaVuSans-69"/>
      <use x="281.775391" xlink:href="#DejaVuSans-6f"/>
      <use x="342.957031" xlink:href="#DejaVuSans-6e"/>
      <use x="406.335938" xlink:href="#DejaVuSans-20"/>
      <use x="438.123047" xlink:href="#DejaVuSans-6f"/>
      <use x="499.304688" xlink:href="#DejaVuSans-66"/>
      <use x="534.509766" xlink:href="#DejaVuSans-20"/>
      <use x="566.296875" xlink:href="#DejaVuSans-74"/>
      <use x="605.505859" xlink:href="#DejaVuSans-6f"/>
      <use x="666.6875" xlink:href="#DejaVuSans-74"/>
      <use x="705.896484" xlink:href="#DejaVuSans-61"/>
      <use x="767.175781" xlink:href="#DejaVuSans-6c"/>
      <use x="794.958984" xlink:href="#DejaVuSans-20"/>
      <use x="826.746094" xlink:href="#DejaVuSans-66"/>
      <use x="861.951172" xlink:href="#DejaVuSans-69"/>
      <use x="889.734375" xlink:href="#DejaVuSans-78"/>
      <use x="948.914062" xlink:href="#DejaVuSans-61"/>
      <use x="1010.193359" xlink:href="#DejaVuSans-74"/>
      <use x="1049.402344" xlink:href="#DejaVuSans-69"/>
      <use x="1077.185547" xlink:href="#DejaVuSans-6f"/>
      <use x="1138.367188" xlink:href="#DejaVuSans-6e"/>
      <use x="1201.746094" xlink:href="#DejaVuSans-20"/>
      <use x="1233.533203" xlink:href="#DejaVuSans-74"/>
      <use x="1272.742188" xlink:href="#DejaVuSans-69"/>
      <use x="1300.525391" xlink:href="#DejaVuSans-6d"/>
      <use x="1397.9375" xlink:href="#DejaVuSans-65"/>
     </g>
    </g>
   </g>
   <g id="patch_178">
    <path d="M 180 1260 
L 180 172.8 
" style="fill:none;stroke:#000000;stroke-linecap:square;stroke-linejoin:miter;stroke-width:0.8;"/>
   </g>
   <g id="patch_179">
    <path d="M 1296 1260 
L 1296 172.8 
" style="fill:none;stroke:#000000;stroke-linecap:square;stroke-linejoin:miter;stroke-width:0.8;"/>
   </g>
   <g id="patch_180">
    <path d="M 180 1260 
L 1296 1260 
" style="fill:none;stroke:#000000;stroke-linecap:square;stroke-linejoin:miter;stroke-width:0.8;"/>
   </g>
   <g id="patch_181">
    <path d="M 180 172.8 
L 1296 172.8 
" style="fill:none;stroke:#000000;stroke-linecap:square;stroke-linejoin:miter;stroke-width:0.8;"/>
   </g>
  </g>
 </g>
 <defs>
  <clipPath id="p84c5eb58b6">
   <rect height="1087.2" width="1116" x="180" y="172.8"/>
  </clipPath>
 </defs>
</svg>
